<svg width="593" height="147" viewBox="0 0 593 147" fill="none" xmlns="http://www.w3.org/2000/svg">
<path d="M30.048 59.176C40.992 59.176 48.672 68.296 48.672 78.568V109H39.936V81.064C39.936 74.248 37.056 67.432 27.936 67.432C18.72 67.432 14.976 75.4 14.976 81.064V109H6.24V60.328H14.976V67.144C17.856 62.824 22.656 59.176 30.048 59.176ZM61.1775 109V60.328H70.0095V109H61.1775ZM65.5935 51.688C62.8095 51.688 60.6015 49.48 60.6015 46.696C60.6015 44.008 62.8095 41.704 65.5935 41.704C68.3775 41.704 70.5855 44.008 70.5855 46.696C70.5855 49.48 68.3775 51.688 65.5935 51.688ZM105.115 101.896C111.259 101.896 116.347 98.92 119.227 94.12L126.715 98.152C122.299 105.352 114.619 110.248 105.115 110.248C90.4268 110.248 79.5788 98.728 79.5788 84.712C79.5788 70.696 90.4268 59.176 105.115 59.176C114.619 59.176 122.299 64.072 126.715 71.176L119.227 75.304C116.347 70.504 111.259 67.432 105.115 67.432C95.5148 67.432 88.5068 74.728 88.5068 84.712C88.5068 94.6 95.5148 101.896 105.115 101.896ZM155.72 59.176C168.968 59.176 181.352 70.312 179.048 88.456H140.359C141.704 96.424 147.656 101.896 157.16 101.896C162.44 101.896 167.24 99.88 169.928 96.424L177.128 101.032C172.808 106.888 165.704 110.248 157.16 110.248C141.032 110.248 131.048 98.728 131.048 84.712C131.048 70.696 141.416 59.176 155.72 59.176ZM140.359 80.968H170.216C169.064 72.712 163.976 67.432 155.72 67.432C147.368 67.432 141.704 72.904 140.359 80.968Z" fill="white"/>
<path d="M256.6 59.176C265.816 59.176 273.688 66.568 273.688 76.84V109H264.952V79.432C264.952 72.52 261.592 67.432 254.488 67.432C247.672 67.432 243.832 73.192 243.832 79.432V109H235.096V79.432C235.096 72.52 231.736 67.432 224.728 67.432C217.816 67.432 213.976 73.192 213.976 79.432V109H205.24V60.328H213.976V66.088C216.664 62.248 220.888 59.176 227.032 59.176C232.888 59.176 238.072 62.248 241.048 67.048C244.12 62.728 249.304 59.176 256.6 59.176ZM307.938 59.176C321.186 59.176 333.57 70.312 331.266 88.456H292.578C293.922 96.424 299.874 101.896 309.378 101.896C314.658 101.896 319.458 99.88 322.146 96.424L329.346 101.032C325.026 106.888 317.922 110.248 309.378 110.248C293.25 110.248 283.266 98.728 283.266 84.712C283.266 70.696 293.634 59.176 307.938 59.176ZM292.578 80.968H322.434C321.282 72.712 316.194 67.432 307.938 67.432C299.586 67.432 293.922 72.904 292.578 80.968ZM362.97 59.176C376.218 59.176 388.602 70.312 386.298 88.456H347.609C348.954 96.424 354.906 101.896 364.41 101.896C369.69 101.896 374.49 99.88 377.178 96.424L384.378 101.032C380.058 106.888 372.954 110.248 364.41 110.248C348.282 110.248 338.298 98.728 338.298 84.712C338.298 70.696 348.666 59.176 362.97 59.176ZM347.609 80.968H377.466C376.314 72.712 371.226 67.432 362.97 67.432C354.618 67.432 348.954 72.904 347.609 80.968ZM419.463 68.68H408.231V89.992C408.231 96.904 408.327 101.512 415.911 101.512C417.351 101.512 418.407 101.416 419.463 101.32V109C418.215 109.288 416.679 109.48 414.759 109.48C404.199 109.48 399.495 103.816 399.495 93.16V68.68H391.911V60.328H399.495V50.152H408.231V60.328H419.463V68.68Z" fill="white"/>
<path d="M473.528 59.328H477.272L449.048 126.528H445.304L454.328 105.024L432.92 59.328H436.76L456.152 100.8L473.528 59.328ZM507.988 58.176C522.004 58.176 533.044 69.696 533.044 83.712C533.044 97.632 522.004 109.248 507.988 109.248C494.068 109.248 483.028 97.632 483.028 83.712C483.028 69.696 494.068 58.176 507.988 58.176ZM507.988 105.792C520.084 105.792 529.588 95.808 529.588 83.712C529.588 71.616 520.084 61.632 507.988 61.632C495.892 61.632 486.388 71.616 486.388 83.712C486.388 95.808 495.892 105.792 507.988 105.792ZM580.62 59.328H584.076V108H580.62V98.592C577.644 104.544 571.884 109.248 563.724 109.248C551.148 109.248 545.004 98.016 545.004 88.992V59.328H548.46V88.992C548.46 96.672 553.26 105.792 563.724 105.792C574.572 105.792 580.62 96.192 580.62 88.128V59.328Z" fill="white"/>
<path fill-rule="evenodd" clip-rule="evenodd" d="M150.112 144.648L150 145.659H219.292C219.816 145.659 220.34 145.734 220.864 145.884C221.388 146.108 221.838 146.221 222.212 146.221C222.886 146.221 223.335 145.697 223.56 144.648L228.389 117.471C228.464 116.872 228.464 116.385 228.389 116.011C228.389 115.636 228.314 115.374 228.164 115.225C228.014 115 227.79 114.888 227.49 114.888C226.592 114.888 225.469 115.636 224.121 117.134C218.281 123.123 211.543 127.878 203.906 131.396C196.27 134.915 187.697 136.675 178.188 136.675L175.942 136.562C178.561 132.156 181.529 127.636 184.846 123.001L151.894 138.12C151.169 140.301 150.575 142.477 150.112 144.648ZM247.144 17.6318C247.61 19.1001 247.942 20.6989 248.139 22.4284L231.774 43.0541C239.902 23.578 233.465 13.9408 225.681 9.94001C223.072 8.25474 219.781 7.41211 215.811 7.41211C211.693 7.41211 208.099 8.64746 205.029 11.1182C201.96 13.514 199.339 16.5462 197.168 20.2148C195.072 23.8086 193.387 27.5146 192.114 31.333C190.916 35.1514 190.055 38.5579 189.531 41.5527C189.382 42.526 189.045 43.9111 188.521 45.708C187.996 47.43 187.173 49.2269 186.05 51.0986C184.927 52.8955 183.467 54.4678 181.67 55.8154C179.948 57.0882 177.777 57.7246 175.156 57.7246C171.637 57.7246 169.204 56.2272 167.856 53.2324C166.793 50.8699 166.406 47.9249 166.694 44.3975L180.349 45.1576C180.9 45.1883 181.372 44.7662 181.403 44.2148C181.433 43.6633 181.011 43.1914 180.46 43.1607L166.919 42.4069C166.965 42.089 167.015 41.7668 167.07 41.4404C167.225 40.5916 167.403 39.7478 167.604 38.909L182.849 39.7576C183.4 39.7883 183.872 39.3662 183.903 38.8148C183.933 38.2633 183.511 37.7914 182.96 37.7607L168.122 36.9347C168.454 35.7671 168.832 34.6095 169.255 33.4617L185.349 34.3576C185.9 34.3883 186.372 33.9662 186.403 33.4148C186.433 32.8633 186.011 32.3914 185.46 32.3607L170.024 31.5014C171.444 28.0999 173.267 24.7869 175.493 21.5625C179.91 15.2734 185.638 10.1074 192.676 6.06445C199.788 2.02148 208.024 0 217.383 0C221.126 0 225.02 0.486654 229.062 1.45996C233.105 2.43327 236.737 4.19271 239.956 6.73828C243.25 9.28385 245.646 12.915 247.144 17.6318Z" fill="white"/>
</svg>
